Coordinates
version=1
nRows=16
nColumns=42
inDegrees=yes

Units are S.I. units (second, meters, Newtons, ...)
If the header above contains a line with 'inDegrees', this indicates whether rotational values are in degrees (yes) or radians (no).

endheader
time	pelvis_tilt	pelvis_list	pelvis_rotation	pelvis_tx	pelvis_ty	pelvis_tz	hip_flexion_r	hip_adduction_r	hip_rotation_r	knee_angle_r	knee_adduction_r	knee_angle_r_beta	ankle_angle_r	subtalar_angle_r	mtp_angle_r	hip_flexion_l	hip_adduction_l	hip_rotation_l	knee_angle_l	knee_adduction_l	knee_angle_l_beta	ankle_angle_l	subtalar_angle_l	mtp_angle_l	lumbar_extension	lumbar_bending	lumbar_rotation	arm_flex_r	arm_add_r	arm_rot_r	elbow_flex_r	pro_sup_r	wrist_flex_r	wrist_dev_r	arm_flex_l	arm_add_l	arm_rot_l	elbow_flex_l	pro_sup_l	wrist_flex_l	wrist_dev_l
      1.62000000	      8.91331102	     -3.60901912	     -2.14277879	      0.72861600	      0.87762469	     -0.23954034	      0.45889395	      8.31563002	      3.19398219	     27.41949924	     -2.16913157	      0.47856054	     19.53379779	      0.48666057	     -7.50446270	     -3.02925687	     -9.13005069	    -16.27970924	     68.33566513	     -9.20218462	      1.19268235	      1.49705366	    -15.02162332	     -7.50446270	    -19.76399620	      1.62932928	     -3.14617553	     -3.37125091	     -2.12240564	    -22.30325974	     37.73045454	     90.00000001	      0.00000000	      0.00000000	     -1.99237209	     -5.82699089	    -12.55260801	     44.00914500	     90.00000001	      0.00000000	      0.00000000
      1.63000000	      9.05618775	     -3.11092275	     -2.23194153	      0.73923477	      0.87936747	     -0.23800003	     -0.94739327	      7.90888259	      3.32385466	     26.45120479	     -2.43612685	      0.46166061	     19.65580066	      0.74416453	     -7.50438117	     -1.29180495	     -8.54945019	    -16.17391076	     69.28194752	     -9.54952373	      1.20919810	      2.84906465	    -14.67648591	     -7.50438117	    -19.93727126	      0.98651891	     -2.69841743	     -3.27076241	     -2.05971735	    -21.94334422	     38.49237706	     90.00000001	      0.00000000	      0.00000000	     -1.97434408	     -5.83476766	    -12.56896879	     43.79900319	     90.00000001	      0.00000000	      0.00000000
      1.64000000	      9.20705053	     -2.62471206	     -2.36181903	      0.74985644	      0.88099273	     -0.23647837	     -2.44420817	      7.43005750	      3.66519581	     25.29462071	     -2.48003509	      0.44147441	     19.84630542	      1.10129909	     -7.50428951	      0.35816337	     -8.00217137	    -15.99239648	     69.92139333	     -9.61965798	      1.22035853	      4.38027095	    -14.11357381	     -7.50428951	    -20.10141507	      0.35376303	     -2.15507180	     -3.29842037	     -2.03663192	    -21.40082065	     39.45054774	     90.00000001	      0.00000000	      0.00000000	     -1.91754420	     -5.80914584	    -12.60915722	     43.55555374	     90.00000001	      0.00000000	      0.00000000
      1.65000000	      9.69192702	     -2.30054333	     -2.57913187	      0.76065308	      0.88293001	     -0.23490448	     -4.54896779	      7.15788257	      4.54070441	     23.69322402	     -2.54459716	      0.41352477	     19.73683260	      0.85309330	     -7.50399250	      1.46454513	     -7.64470513	    -15.94282783	     70.10001170	     -9.55313392	      1.22347601	      6.09587757	    -12.77691212	     -7.50399250	    -20.62346855	     -0.13358626	     -1.49316496	     -3.49802998	     -2.29333723	    -19.86774549	     40.64578639	     90.00000001	      0.00000000	      0.00000000	     -1.89142456	     -5.74619670	    -12.77101307	     43.41046773	     90.00000001	      0.00000000	      0.00000000
      1.66000000	      9.56490455	     -1.84014767	     -2.75335195	      0.77100732	      0.88384769	     -0.23340761	     -5.61038798	      6.74687581	      4.53264371	     22.73979270	     -2.78847416	      0.39688425	     19.82753781	      1.14311678	     -7.50392102	      3.37099720	     -7.14047388	    -15.77589956	     70.24078889	     -9.41614035	      1.22593304	      7.35600936	    -12.51030959	     -7.50392102	    -20.48541461	     -0.72092475	     -0.93535026	     -3.43503227	     -2.25504100	    -19.68589361	     41.49183979	     90.00000001	      0.00000000	      0.00000000	     -1.91937780	     -5.73265788	    -12.82587038	     43.30707139	     90.00000001	      0.00000000	      0.00000000
      1.67000000	      9.49248657	     -1.41887294	     -2.92125741	      0.78143119	      0.88463393	     -0.23206758	     -6.81505254	      6.32063396	      4.70859756	     21.60094632	     -2.90443461	      0.37700763	     19.99077461	      1.57885963	     -7.50384660	      5.12195441	     -6.65514429	    -15.45635015	     70.06378218	     -9.04853175	      1.22284369	      8.73147644	    -12.21337430	     -7.50384660	    -20.39301324	     -1.23454590	     -0.37123406	     -3.47106550	     -2.28772327	    -19.35270700	     42.52220182	     90.00000001	      0.00000000	      0.00000000	     -1.95096688	     -5.69160595	    -12.92705373	     43.14809285	     90.00000001	      0.00000000	      0.00000000
      1.68000000	      9.81211740	     -1.10393705	     -3.11810464	      0.79213062	      0.88569502	     -0.23081431	     -8.65666652	      5.93006146	      5.20802454	     20.06431406	     -2.90756762	      0.35018834	     20.06517012	      2.00617809	     -7.50370499	      6.25811822	     -6.29044592	    -14.89105936	     69.50044996	     -8.23095293	      1.21301168	      9.99160552	    -11.79566454	     -7.50370499	    -20.70161708	     -1.64486119	      0.24641406	     -3.59839890	     -2.50946470	    -18.46813470	     43.73099674	     90.00000001	      0.00000000	      0.00000000	     -1.95439507	     -5.59523299	    -13.16796455	     42.96608585	     90.00000001	      0.00000000	      0.00000000
      1.69000000	      9.58387034	     -0.82345419	     -3.26628147	      0.80248275	      0.88581949	     -0.22944544	     -9.58551244	      5.71113583	      4.98720027	     19.12670408	     -3.18189559	      0.33382396	     20.06263810	      2.24955469	     -7.50363955	      8.09875580	     -5.98692415	    -14.71982358	     68.82405280	     -7.88048926	      1.20120633	     10.91970789	    -11.79567683	     -7.50363955	    -20.43895873	     -1.99109101	      0.77804146	     -3.54206826	     -2.56452904	    -18.21189632	     44.56282780	     90.00000001	      0.00000000	      0.00000000	     -2.10384352	     -5.57891244	    -13.27218342	     42.96565482	     90.00000001	      0.00000000	      0.00000000
      1.70000000	      9.77519859	     -0.59919188	     -3.39808947	      0.81320970	      0.88630197	     -0.22839627	    -11.33174747	      5.42243987	      5.36212206	     17.46618502	     -3.23280006	      0.30484244	     20.08046004	      2.82869213	     -7.50350559	      9.24807756	     -5.65501338	    -13.92958783	     67.72390441	     -6.85179550	      1.18200511	     11.69943923	    -12.18513207	     -7.50350559	    -20.59484662	     -2.24712814	      1.27723925	     -3.61748807	     -2.80223447	    -17.46308631	     45.75440193	     90.00000001	      0.00000000	      0.00000000	     -2.20717212	     -5.48732513	    -13.55462564	     42.81138013	     90.00000001	      0.00000000	      0.00000000
      1.71000000	      9.72982373	     -0.41847832	     -3.43312480	      0.82382381	      0.88627845	     -0.22739265	    -12.67733157	      5.23570688	      5.39038740	     16.10308019	     -3.33904429	      0.28105177	     20.04104185	      3.30384831	     -7.50337938	     10.65336989	     -5.39980861	    -13.35129598	     66.39107120	     -6.01222522	      1.15874279	     12.23694178	    -12.69732689	     -7.50337938	    -20.51403608	     -2.42211110	      1.68066782	     -3.61704331	     -2.98284115	    -17.00954926	     46.71586345	     90.00000001	      0.00000000	      0.00000000	     -2.35457875	     -5.40787600	    -13.76102529	     42.76392488	     90.00000001	      0.00000000	      0.00000000
      1.72000000	      9.45414676	     -0.30128869	     -3.49667452	      0.83429782	      0.88570700	     -0.22630761	    -13.61652797	      5.18346138	      5.01254406	     15.04879986	     -3.59325531	      0.26265111	     20.02019985	      3.79764859	     -7.50331123	     12.28351818	     -5.22429875	    -13.00683002	     64.87499372	     -5.36638787	      1.13228224	     12.77579973	    -12.95320131	     -7.50331123	    -20.19230242	     -2.52865399	      2.11209990	     -3.55500418	     -3.10390408	    -16.77824143	     47.55632398	     90.00000001	      0.00000000	      0.00000000	     -2.54596699	     -5.36419538	    -13.89104473	     42.73021451	     90.00000001	      0.00000000	      0.00000000
      1.73000000	      9.71679155	     -0.15303647	     -3.47660981	      0.84514477	      0.88571779	     -0.22553038	    -15.41860515	      4.95909886	      4.88243711	     13.42939367	     -3.61656879	      0.23438714	     19.91409588	      4.78352281	     -7.50317263	     13.04940553	     -4.90958150	    -12.08601170	     62.82238297	     -4.11287140	      1.09645743	     12.73551996	    -13.86464184	     -7.50317263	    -20.43504816	     -2.63888200	      2.34158122	     -3.46067306	     -3.32472984	    -16.21506087	     48.44709592	     90.00000001	      0.00000000	      0.00000000	     -2.76186916	     -5.28641738	    -14.19952845	     42.68775717	     90.00000001	      0.00000000	      0.00000000
      1.74000000	      9.43303660	     -0.12666238	     -3.44892974	      0.85570891	      0.88476029	     -0.22465136	    -16.38093842	      5.00158708	      4.39009708	     12.31686535	     -3.79927378	      0.21496985	     19.87196460	      5.50928620	     -7.50310420	     14.47048357	     -4.76228401	    -11.68464854	     60.71905049	     -3.39079856	      1.05974735	     13.03128677	    -14.02258024	     -7.50310420	    -20.11387828	     -2.59744230	      2.66726350	     -3.39261829	     -3.47853611	    -16.00946267	     49.25574694	     90.00000001	      0.00000000	      0.00000000	     -2.96320037	     -5.23520735	    -14.34504087	     42.59240490	     90.00000001	      0.00000000	      0.00000000
      1.75000000	      9.52204566	     -0.08948795	     -3.36291197	      0.86649701	      0.88416624	     -0.22389950	    -17.88732724	      4.95472577	      3.93876020	     10.91175476	     -3.85852439	      0.19044605	     19.75946096	      6.70500050	     -7.50302643	     15.23655209	     -4.56996642	    -10.99214150	     58.13658946	     -2.27083896	      1.01467490	     12.99471988	    -14.30508504	     -7.50302643	    -20.18588675	     -2.55685405	      2.81561463	     -3.24059280	     -3.64243225	    -15.65784264	     50.05401229	     90.00000001	      0.00000000	      0.00000000	     -3.18275086	     -5.17904911	    -14.60314844	     42.44984734	     90.00000001	      0.00000000	      0.00000000
      1.76000000	      9.76315287	      0.13722212	     -3.33730648	      0.87737885	      0.88362851	     -0.22332978	    -19.44561232	      4.58807071	      3.23820275	      9.74783603	     -3.67848322	      0.17013183	     19.74465402	      7.71253989	     -7.50287699	     15.65192624	     -4.10108832	    -10.64067685	     55.12981859	     -1.33039368	      0.96219685	     12.61102524	    -14.80425487	     -7.50287699	    -20.42394240	     -2.72624489	      2.85923254	     -2.97986450	     -3.81173020	    -15.25328764	     50.61816334	     90.00000001	      0.00000000	      0.00000000	     -3.50954982	     -5.11731174	    -14.95244718	     42.53708852	     90.00000001	      0.00000000	      0.00000000
      1.77000000	      9.79049082	      0.16837754	     -3.25357594	      0.88813391	      0.88265296	     -0.22264103	    -20.70269055	      4.54434999	      2.51707967	      8.74195818	     -3.64922939	      0.15257595	     19.71793187	      8.82467926	     -7.50274086	     16.22126148	     -3.87089093	    -10.33701765	     51.95466313	     -0.44696766	      0.90677993	     12.46377857	    -14.68416883	     -7.50274086	    -20.45382024	     -2.67455065	      2.94887215	     -2.76471824	     -3.94942922	    -14.98536830	     51.21798142	     90.00000001	      0.00000000	      0.00000000	     -3.74645641	     -5.06700291	    -15.23372104	     42.42604459	     90.00000001	      0.00000000	      0.00000000
